<svg width="31" height="30" viewBox="0 0 31 30" fill="none" xmlns="http://www.w3.org/2000/svg">
<path d="M2.10824 4.5H7.04574V3C7.04574 2.20435 7.39254 1.44129 8.00984 0.87868C8.62715 0.31607 9.4644 0 10.3374 0H20.2124C21.0854 0 21.9227 0.31607 22.54 0.87868C23.1573 1.44129 23.5041 2.20435 23.5041 3V4.5H28.4416C28.8781 4.5 29.2967 4.65804 29.6054 4.93934C29.914 5.22064 30.0874 5.60218 30.0874 6C30.0874 6.39782 29.914 6.77936 29.6054 7.06066C29.2967 7.34196 28.8781 7.5 28.4416 7.5H26.7957V27C26.7957 27.7956 26.4489 28.5587 25.8316 29.1213C25.2143 29.6839 24.3771 30 23.5041 30H7.04574C6.17273 30 5.33548 29.6839 4.71818 29.1213C4.10087 28.5587 3.75407 27.7956 3.75407 27V7.5H2.10824C1.67173 7.5 1.25311 7.34196 0.944456 7.06066C0.635802 6.77936 0.462402 6.39782 0.462402 6C0.462402 5.60218 0.635802 5.22064 0.944456 4.93934C1.25311 4.65804 1.67173 4.5 2.10824 4.5ZM7.04574 7.5V27H23.5041V7.5H7.04574ZM10.3374 4.5H20.2124V3H10.3374V4.5ZM10.3374 10.5H13.6291V24H10.3374V10.5ZM16.9207 10.5H20.2124V24H16.9207V10.5Z" fill="#FC0000"/>
</svg>
